<?xml version="1.0" encoding="UTF-8" standalone="no"?>
<!-- Created with Inkscape (http://www.inkscape.org/) -->

<svg
   xmlns:dc="http://purl.org/dc/elements/1.1/"
   xmlns:cc="http://creativecommons.org/ns#"
   xmlns:rdf="http://www.w3.org/1999/02/22-rdf-syntax-ns#"
   xmlns:svg="http://www.w3.org/2000/svg"
   xmlns="http://www.w3.org/2000/svg"
   xmlns:xlink="http://www.w3.org/1999/xlink"
   xmlns:sodipodi="http://sodipodi.sourceforge.net/DTD/sodipodi-0.dtd"
   xmlns:inkscape="http://www.inkscape.org/namespaces/inkscape"
   width="248.4295"
   height="121.0128"
   id="svg2"
   version="1.1"
   inkscape:version="0.48.4 r9939"
   sodipodi:docname="MVS.svg">
  <defs
     id="defs4">
    <linearGradient
       id="linearGradient3775">
      <stop
         style="stop-color:#2d2f3e;stop-opacity:1"
         offset="0"
         id="stop3777" />
      <stop
         style="stop-color:#454e5f;stop-opacity:1"
         offset="1"
         id="stop3779" />
    </linearGradient>
    <linearGradient
       id="linearGradient3785">
      <stop
         style="stop-color:#b2d32c;stop-opacity:1"
         offset="0"
         id="stop3787" />
      <stop
         id="stop3797"
         offset="0.33228406"
         style="stop-color:#f4cc0a;stop-opacity:1" />
      <stop
         id="stop3795"
         offset="0.66456813"
         style="stop-color:#ed2a64;stop-opacity:1" />
      <stop
         style="stop-color:#1859a9;stop-opacity:1"
         offset="1"
         id="stop3789" />
    </linearGradient>
    <linearGradient
       inkscape:collect="always"
       xlink:href="#linearGradient3785"
       id="linearGradient3791"
       x1="176.86946"
       y1="401.7403"
       x2="113.4763"
       y2="274.95352"
       gradientUnits="userSpaceOnUse" />
    <linearGradient
       inkscape:collect="always"
       xlink:href="#linearGradient3775"
       id="linearGradient3781"
       x1="186.64651"
       y1="315.26218"
       x2="186.64651"
       y2="264.52521"
       gradientUnits="userSpaceOnUse"
       gradientTransform="matrix(0.98969065,0,0,0.98969065,-64.223705,3.2486189)" />
    <linearGradient
       inkscape:collect="always"
       xlink:href="#linearGradient3775"
       id="linearGradient3794"
       x1="130.96983"
       y1="260.80475"
       x2="130.96983"
       y2="233.94713"
       gradientUnits="userSpaceOnUse" />
    <linearGradient
       inkscape:collect="always"
       xlink:href="#linearGradient3775"
       id="linearGradient3802"
       x1="123.09278"
       y1="347.30478"
       x2="123.09278"
       y2="321.41135"
       gradientUnits="userSpaceOnUse" />
    <linearGradient
       inkscape:collect="always"
       xlink:href="#linearGradient3775"
       id="linearGradient3822"
       gradientUnits="userSpaceOnUse"
       x1="130.96983"
       y1="260.80475"
       x2="130.96983"
       y2="233.94713" />
    <linearGradient
       inkscape:collect="always"
       xlink:href="#linearGradient3775"
       id="linearGradient3824"
       gradientUnits="userSpaceOnUse"
       x1="130.96983"
       y1="260.80475"
       x2="130.96983"
       y2="233.94713" />
    <linearGradient
       inkscape:collect="always"
       xlink:href="#linearGradient3775"
       id="linearGradient3826"
       gradientUnits="userSpaceOnUse"
       x1="130.96983"
       y1="260.80475"
       x2="130.96983"
       y2="233.94713" />
    <linearGradient
       inkscape:collect="always"
       xlink:href="#linearGradient3775"
       id="linearGradient3828"
       gradientUnits="userSpaceOnUse"
       x1="130.96983"
       y1="260.80475"
       x2="130.96983"
       y2="233.94713" />
    <linearGradient
       inkscape:collect="always"
       xlink:href="#linearGradient3775"
       id="linearGradient3830"
       gradientUnits="userSpaceOnUse"
       x1="130.96983"
       y1="260.80475"
       x2="130.96983"
       y2="233.94713" />
    <linearGradient
       inkscape:collect="always"
       xlink:href="#linearGradient3775"
       id="linearGradient3832"
       gradientUnits="userSpaceOnUse"
       x1="130.96983"
       y1="260.80475"
       x2="130.96983"
       y2="233.94713" />
    <linearGradient
       inkscape:collect="always"
       xlink:href="#linearGradient3775"
       id="linearGradient3834"
       gradientUnits="userSpaceOnUse"
       x1="130.96983"
       y1="260.80475"
       x2="130.96983"
       y2="233.94713" />
    <linearGradient
       inkscape:collect="always"
       xlink:href="#linearGradient3775"
       id="linearGradient3836"
       gradientUnits="userSpaceOnUse"
       x1="130.96983"
       y1="260.80475"
       x2="130.96983"
       y2="233.94713" />
    <linearGradient
       inkscape:collect="always"
       xlink:href="#linearGradient3775"
       id="linearGradient3838"
       gradientUnits="userSpaceOnUse"
       x1="130.96983"
       y1="260.80475"
       x2="130.96983"
       y2="233.94713" />
    <linearGradient
       inkscape:collect="always"
       xlink:href="#linearGradient3775"
       id="linearGradient3841"
       gradientUnits="userSpaceOnUse"
       x1="130.96983"
       y1="260.80475"
       x2="130.96983"
       y2="233.94713" />
    <linearGradient
       inkscape:collect="always"
       xlink:href="#linearGradient3775"
       id="linearGradient3844"
       gradientUnits="userSpaceOnUse"
       x1="130.96983"
       y1="260.80475"
       x2="130.96983"
       y2="233.94713" />
    <linearGradient
       inkscape:collect="always"
       xlink:href="#linearGradient3775"
       id="linearGradient3847"
       gradientUnits="userSpaceOnUse"
       x1="130.96983"
       y1="260.80475"
       x2="130.96983"
       y2="233.94713" />
    <linearGradient
       inkscape:collect="always"
       xlink:href="#linearGradient3775"
       id="linearGradient3850"
       gradientUnits="userSpaceOnUse"
       x1="130.96983"
       y1="260.80475"
       x2="130.96983"
       y2="233.94713" />
    <linearGradient
       inkscape:collect="always"
       xlink:href="#linearGradient3775"
       id="linearGradient3853"
       gradientUnits="userSpaceOnUse"
       x1="130.96983"
       y1="260.80475"
       x2="130.96983"
       y2="233.94713" />
    <linearGradient
       inkscape:collect="always"
       xlink:href="#linearGradient3775"
       id="linearGradient3856"
       gradientUnits="userSpaceOnUse"
       x1="130.96983"
       y1="260.80475"
       x2="130.96983"
       y2="233.94713" />
    <linearGradient
       inkscape:collect="always"
       xlink:href="#linearGradient3775"
       id="linearGradient3859"
       gradientUnits="userSpaceOnUse"
       x1="130.96983"
       y1="260.80475"
       x2="130.96983"
       y2="233.94713" />
    <linearGradient
       inkscape:collect="always"
       xlink:href="#linearGradient3775"
       id="linearGradient3862"
       gradientUnits="userSpaceOnUse"
       x1="130.96983"
       y1="260.80475"
       x2="130.96983"
       y2="233.94713" />
    <linearGradient
       inkscape:collect="always"
       xlink:href="#linearGradient3775"
       id="linearGradient3880"
       gradientUnits="userSpaceOnUse"
       x1="123.09278"
       y1="347.30478"
       x2="123.09278"
       y2="321.41135" />
    <linearGradient
       inkscape:collect="always"
       xlink:href="#linearGradient3775"
       id="linearGradient3882"
       gradientUnits="userSpaceOnUse"
       x1="123.09278"
       y1="347.30478"
       x2="123.09278"
       y2="321.41135" />
    <linearGradient
       inkscape:collect="always"
       xlink:href="#linearGradient3775"
       id="linearGradient3884"
       gradientUnits="userSpaceOnUse"
       x1="123.09278"
       y1="347.30478"
       x2="123.09278"
       y2="321.41135" />
    <linearGradient
       inkscape:collect="always"
       xlink:href="#linearGradient3775"
       id="linearGradient3886"
       gradientUnits="userSpaceOnUse"
       x1="123.09278"
       y1="347.30478"
       x2="123.09278"
       y2="321.41135" />
    <linearGradient
       inkscape:collect="always"
       xlink:href="#linearGradient3775"
       id="linearGradient3888"
       gradientUnits="userSpaceOnUse"
       x1="123.09278"
       y1="347.30478"
       x2="123.09278"
       y2="321.41135" />
    <linearGradient
       inkscape:collect="always"
       xlink:href="#linearGradient3775"
       id="linearGradient3890"
       gradientUnits="userSpaceOnUse"
       x1="123.09278"
       y1="347.30478"
       x2="123.09278"
       y2="321.41135" />
    <linearGradient
       inkscape:collect="always"
       xlink:href="#linearGradient3775"
       id="linearGradient3892"
       gradientUnits="userSpaceOnUse"
       x1="123.09278"
       y1="347.30478"
       x2="123.09278"
       y2="321.41135" />
    <linearGradient
       inkscape:collect="always"
       xlink:href="#linearGradient3775"
       id="linearGradient3894"
       gradientUnits="userSpaceOnUse"
       x1="123.09278"
       y1="347.30478"
       x2="123.09278"
       y2="321.41135" />
    <linearGradient
       inkscape:collect="always"
       xlink:href="#linearGradient3775"
       id="linearGradient3897"
       gradientUnits="userSpaceOnUse"
       x1="123.09278"
       y1="347.30478"
       x2="123.09278"
       y2="321.41135" />
    <linearGradient
       inkscape:collect="always"
       xlink:href="#linearGradient3775"
       id="linearGradient3900"
       gradientUnits="userSpaceOnUse"
       x1="123.09278"
       y1="347.30478"
       x2="123.09278"
       y2="321.41135" />
    <linearGradient
       inkscape:collect="always"
       xlink:href="#linearGradient3775"
       id="linearGradient3903"
       gradientUnits="userSpaceOnUse"
       x1="123.09278"
       y1="347.30478"
       x2="123.09278"
       y2="321.41135" />
    <linearGradient
       inkscape:collect="always"
       xlink:href="#linearGradient3775"
       id="linearGradient3906"
       gradientUnits="userSpaceOnUse"
       x1="123.09278"
       y1="347.30478"
       x2="123.09278"
       y2="321.41135" />
    <linearGradient
       inkscape:collect="always"
       xlink:href="#linearGradient3775"
       id="linearGradient3909"
       gradientUnits="userSpaceOnUse"
       x1="123.09278"
       y1="347.30478"
       x2="123.09278"
       y2="321.41135" />
    <linearGradient
       inkscape:collect="always"
       xlink:href="#linearGradient3775"
       id="linearGradient3912"
       gradientUnits="userSpaceOnUse"
       x1="123.09278"
       y1="347.30478"
       x2="123.09278"
       y2="321.41135" />
    <linearGradient
       inkscape:collect="always"
       xlink:href="#linearGradient3775"
       id="linearGradient3915"
       gradientUnits="userSpaceOnUse"
       x1="123.09278"
       y1="347.30478"
       x2="123.09278"
       y2="321.41135" />
    <linearGradient
       inkscape:collect="always"
       xlink:href="#linearGradient3775"
       id="linearGradient3924"
       gradientUnits="userSpaceOnUse"
       gradientTransform="matrix(0.98969065,0,0,0.98969065,-64.223705,3.2486189)"
       x1="186.64651"
       y1="315.26218"
       x2="186.64651"
       y2="264.52521" />
    <linearGradient
       inkscape:collect="always"
       xlink:href="#linearGradient3785"
       id="linearGradient3926"
       gradientUnits="userSpaceOnUse"
       x1="176.86946"
       y1="401.7403"
       x2="113.4763"
       y2="274.95352" />
    <linearGradient
       inkscape:collect="always"
       xlink:href="#linearGradient3775"
       id="linearGradient3928"
       gradientUnits="userSpaceOnUse"
       x1="123.09278"
       y1="347.30478"
       x2="123.09278"
       y2="321.41135" />
    <linearGradient
       inkscape:collect="always"
       xlink:href="#linearGradient3775"
       id="linearGradient3930"
       gradientUnits="userSpaceOnUse"
       x1="130.96983"
       y1="260.80475"
       x2="130.96983"
       y2="233.94713" />
  </defs>
  <sodipodi:namedview
     id="base"
     pagecolor="#ffffff"
     bordercolor="#666666"
     borderopacity="1.0"
     inkscape:pageopacity="0.0"
     inkscape:pageshadow="2"
     inkscape:zoom="0.92458711"
     inkscape:cx="199.57834"
     inkscape:cy="102.63526"
     inkscape:document-units="px"
     inkscape:current-layer="layer1"
     showgrid="false"
     inkscape:window-width="1366"
     inkscape:window-height="706"
     inkscape:window-x="-8"
     inkscape:window-y="-8"
     inkscape:window-maximized="1"
     fit-margin-top="0"
     fit-margin-left="0"
     fit-margin-right="0"
     fit-margin-bottom="0" />
  <metadata
     id="metadata7">
    <rdf:RDF>
      <cc:Work
         rdf:about="">
        <dc:format>image/svg+xml</dc:format>
        <dc:type
           rdf:resource="http://purl.org/dc/dcmitype/StillImage" />
        <dc:title></dc:title>
      </cc:Work>
    </rdf:RDF>
  </metadata>
  <g
     inkscape:label="Capa 1"
     inkscape:groupmode="layer"
     id="layer1"
     transform="translate(58.929508,-226.3622)">
    <g
       id="g3918">
      <path
         sodipodi:nodetypes="sssssccssssccscccccccccccccccccccccc"
         inkscape:connector-curvature="0"
         id="path3817"
         d="m 167.85045,264.98147 c -10.03487,0 -19.57725,4.78494 -19.57725,15.06185 0,7.18809 3.00384,11.08872 15.06185,14.3195 12.05801,3.23094 11.3815,3.82658 11.3815,6.18565 0,1.62042 -0.99846,3.89685 -7.57735,3.89685 -2.98001,0 -6.2474,-2.28389 -6.2474,-6.55675 l -14.47425,0 c 0,12.17279 10.63832,17.29025 22.23715,17.22685 9.39896,-0.0518 20.8453,-4.5707 20.8453,-16.29895 0,-17.86642 -27.3711,-13.33309 -27.3711,-20.01025 0,-1.32143 1.18081,-3.37115 5.2268,-3.37115 6.77573,0 6.15455,4.91745 6.15455,4.91745 l 13.82475,0 c 0,-13.49388 -13.62229,-15.37105 -19.48455,-15.37105 z M 45.5,266.21857 l 0,47.38135 13.85567,0 0,-30.46385 8.597935,30.46385 10.917535,0 8.474225,-30.46385 0,30.46385 13.855685,0 0,-47.38135 -20.938165,0 -6.927835,27.98965 -6.8969,-27.98965 z m 57.52575,0 14.31965,47.38135 16.45355,0 14.78345,-47.38135 -15.1236,0 -7.63925,28.91743 -7.8556,-28.91743 z"
         style="font-size:39.1128006px;font-style:normal;font-variant:normal;font-weight:normal;font-stretch:normal;line-height:125%;letter-spacing:0px;word-spacing:0px;fill:url(#linearGradient3924);fill-opacity:1;stroke:none;font-family:Helvetica;-inkscape-font-specification:Helvetica" />
      <rect
         transform="matrix(1,0,-0.49999826,0.86602641,0,0)"
         y="261.38025"
         x="141.61922"
         height="139.7186"
         width="23"
         id="rect3772"
         style="fill:url(#linearGradient3926);fill-opacity:1;stroke:#ff0000;stroke-width:0;stroke-miterlimit:4;stroke-opacity:1;stroke-dasharray:none" />
      <path
         id="path3866"
         d="m 134.84375,320.84375 0,25.84375 1.75,0 1.71875,0 0,-11.75 12.625,0 0,-1.53125 0,-1.5625 -12.625,0 0,-7.90625 14.40625,0 0,-1.53125 0,-1.5625 -17.875,0 z m 19.71875,0 0,25.84375 1.71875,0 1.6875,0 0,-21.78125 7.3125,21.78125 1.6875,0 1.6875,0 7.28125,-21.84375 0,21.84375 1.71875,0 1.6875,0 0,-25.84375 -2.53125,0 -2.5,0 -7.34375,22 -7.375,-22 -2.5,0 -2.53125,0 z m -101.75,0.53125 c -0.527353,1.66408 -1.335946,2.89065 -2.4375,3.6875 -1.08985,0.78518 -2.503912,1.1602 -4.25,1.125 l 0,2.53125 5.90625,0 0,17.96875 1.6875,0 1.6875,0 0,-25.3125 -2.59375,0 z m 17.875,0 c -2.765632,2e-5 -4.900396,1.15041 -6.40625,3.40625 -1.505862,2.25587 -2.250001,5.46486 -2.25,9.625 -10e-7,4.16016 0.744138,7.34376 2.25,9.59375 1.505854,2.25 3.640618,3.375 6.40625,3.375 2.78905,0 4.937485,-1.125 6.4375,-3.375 1.499982,-2.24999 2.249981,-5.43359 2.25,-9.59375 -1.9e-5,-4.16014 -0.750018,-7.36913 -2.25,-9.625 -1.500015,-2.25584 -3.64845,-3.40623 -6.4375,-3.40625 z m 18.5,0 c -2.742195,2e-5 -4.871099,0.81839 -6.40625,2.40625 -1.535158,1.58791 -2.29688,3.77346 -2.25,6.5625 l 3.09375,0 c 0.05859,-1.96873 0.54101,-3.49022 1.4375,-4.5625 0.896477,-1.07224 2.117179,-1.62498 3.6875,-1.625 1.499989,2e-5 2.72655,0.42581 3.6875,1.28125 0.960923,0.85549 1.437485,1.96486 1.4375,3.3125 -1.5e-5,1.28908 -0.324233,2.33596 -0.96875,3.15625 -0.644544,0.82033 -1.824231,1.73439 -3.59375,2.71875 -3.644538,2.00392 -6.144536,3.8379 -7.46875,5.53125 -1.324221,1.69337 -1.968751,3.87109 -1.96875,6.53125 l 17.3125,0 0,-3.0625 -13.75,0 c 0.281245,-0.70312 0.660151,-1.34375 1.09375,-1.90625 1.042962,-1.30078 2.984367,-2.74218 5.84375,-4.3125 2.636705,-1.45312 4.419906,-2.76756 5.375,-3.96875 0.95506,-1.20116 1.437482,-2.73045 1.4375,-4.59375 -1.8e-5,-2.19138 -0.730486,-3.99216 -2.21875,-5.375 -1.500015,-1.3945 -3.437513,-2.09373 -5.78125,-2.09375 z m 20.15625,0.53125 -1.8125,13.5 2.65625,0.15625 c 0.44531,-0.69139 1.12695,-1.24218 2,-1.6875 0.87304,-0.4453 1.76171,-0.68749 2.6875,-0.6875 1.72265,10e-6 3.08592,0.5254 4.09375,1.5625 1.00779,1.03712 1.53124,2.4297 1.53125,4.1875 -1e-5,1.67579 -0.50197,3.0586 -1.46875,4.125 -0.96681,1.06641 -2.19533,1.59376 -3.71875,1.59375 -1.58204,10e-6 -2.85157,-0.38867 -3.8125,-1.15625 -0.96094,-0.76758 -1.54298,-1.84374 -1.71875,-3.25 l -3.28125,0 c 0.17578,2.22657 1.02734,3.98437 2.5625,5.25 1.53515,1.26562 3.5625,1.875 6.09375,1.875 2.54296,0 4.62693,-0.82227 6.25,-2.46875 1.62303,-1.64648 2.43748,-3.7539 2.4375,-6.34375 -2e-5,-2.5078 -0.78518,-4.50389 -2.34375,-5.96875 -1.57033,-1.47655 -3.6836,-2.21874 -6.34375,-2.21875 -1.54688,10e-6 -3.01172,0.47658 -4.40625,1.4375 l -0.0937,0.0937 1.0625,-6.9375 10.75,0 0,-3.0625 -13.125,0 z m -38.65625,2.3125 c 1.781238,3e-5 3.140611,0.86916 4.03125,2.5625 0.89061,1.69338 1.3242,4.2383 1.3125,7.625 0.0117,3.38673 -0.42189,5.90625 -1.3125,7.59375 -0.890639,1.6875 -2.250012,2.53125 -4.03125,2.53125 -1.769539,0 -3.089851,-0.84375 -3.96875,-2.53125 -0.878912,-1.6875 -1.30079,-4.20702 -1.3125,-7.59375 0.01171,-3.3867 0.433588,-5.93162 1.3125,-7.625 0.878899,-1.69334 2.199211,-2.56247 3.96875,-2.5625 z m 29.59375,18.65625 0,3.8125 3.78125,0 0,-3.8125 -3.78125,0 z"
         style="font-size:36px;font-style:normal;font-variant:normal;font-weight:normal;font-stretch:normal;line-height:125%;letter-spacing:-1.80999994px;word-spacing:0px;fill:url(#linearGradient3928);fill-opacity:1;stroke:none;font-family:Helvetica;-inkscape-font-specification:Helvetica"
         inkscape:connector-curvature="0" />
      <path
         id="path3805"
         d="m 45.5,233.875 0,26.65625 1.75,0 1.71875,0 0,-21.75 13.75,21.75 1.96875,0 1.96875,0 0,-26.65625 -1.71875,0 -1.75,0 0,21.6875 -13.34375,-21.6875 -2.1875,0 -2.15625,0 z m 58.25,0 0,3.6875 3.34375,0 0,-3.6875 -3.34375,0 z m 27.34375,0 0,3.6875 3.34375,0 0,-3.6875 -3.34375,0 z m -37.1875,1.8125 0,5.4375 -2.6875,0 0,2.6875 2.6875,0 0,12.78125 c -3e-6,1.5354 0.288645,2.62133 0.875,3.25 0.586348,0.62866 1.604656,0.9375 3.03125,0.9375 0.507761,0 1.325234,-0.0807 2.4375,-0.25 l 0,-2.53125 -1.15625,0 c -0.580315,10e-6 -1.0617,-0.12112 -1.40625,-0.375 -0.344564,-0.25388 -0.500006,-0.59601 -0.5,-1.03125 l 0,-12.78125 3.0625,0 0,-2.6875 -3.0625,0 0,-5.4375 -3.28125,0 z m -13.8125,4.875 c -2.683928,2e-5 -4.868918,0.92652 -6.53125,2.8125 -1.662341,1.88601 -2.500001,4.36672 -2.5,7.4375 -10e-7,3.05871 0.837659,5.52026 2.5,7.40625 1.662332,1.886 3.847322,2.84375 6.53125,2.84375 2.708087,0 4.874941,-0.95775 6.53125,-2.84375 1.656275,-1.88599 2.49998,-4.34754 2.5,-7.40625 -2e-5,-3.07078 -0.843725,-5.55149 -2.5,-7.4375 -1.656309,-1.88598 -3.823163,-2.81248 -6.53125,-2.8125 z m 39.59375,0 c -2.68393,2e-5 -4.81645,0.92549 -6.40625,2.78125 -1.5898,1.85579 -2.375,4.33752 -2.375,7.46875 0,3.13125 0.74585,5.61902 2.28125,7.46875 1.53539,1.84973 3.61238,2.78125 6.1875,2.78125 2.30913,0 4.14091,-0.65598 5.53125,-1.9375 1.3903,-1.28151 2.25522,-3.12037 2.59375,-5.5625 l -3.125,0 c -0.27808,1.49913 -0.83518,2.6527 -1.6875,3.46875 -0.85233,0.81606 -1.91809,1.21875 -3.1875,1.21875 -1.71675,0 -3.00455,-0.62975 -3.875,-1.875 -0.87047,-1.24523 -1.31251,-3.09619 -1.3125,-5.5625 -1e-5,-2.32121 0.46929,-4.14491 1.40625,-5.46875 0.93694,-1.32381 2.23079,-1.96873 3.875,-1.96875 1.39031,2e-5 2.50955,0.36337 3.34375,1.125 0.83418,0.76167 1.3045,1.82845 1.4375,3.21875 l 3.125,0 c -0.0967,-2.23659 -0.82845,-3.97452 -2.21875,-5.25 -1.39033,-1.27545 -3.26044,-1.90623 -5.59375,-1.90625 z m 26.875,0 c -2.06281,0.11704 -3.66953,0.65757 -4.84375,1.59375 -1.34196,1.06996 -2.09283,2.68473 -2.25,4.8125 l 3,0 c 0.15716,-1.23314 0.61938,-2.18986 1.375,-2.8125 0.7556,-0.6226 1.78303,-0.90623 3.125,-0.90625 1.4024,2e-5 2.49541,0.28866 3.28125,0.875 0.78582,0.58637 1.18749,1.3978 1.1875,2.4375 l 0,0.15625 c -1e-5,0.49569 -0.11405,0.89234 -0.34375,1.21875 -0.22971,0.32643 -0.54563,0.54746 -0.96875,0.65625 -0.32644,0.0847 -0.66857,0.1512 -1.03125,0.1875 l -4.4375,0.5625 c -2.0069,0.25389 -3.54799,0.90988 -4.59375,1.9375 -1.04576,1.02763 -1.5625,2.41534 -1.5625,4.15625 0,1.72884 0.54399,3.07822 1.65625,4.09375 1.11225,1.01554 2.63315,1.53125 4.53125,1.53125 2.35748,0 4.33663,-0.72464 5.96875,-2.1875 0.31432,-0.27806 0.60194,-0.57275 0.84375,-0.875 0.15715,0.82211 0.41855,1.45893 0.78125,1.90625 0.55612,0.67702 1.45434,1 2.6875,1 0.24178,0 0.52438,-0.0213 0.875,-0.0937 0.35058,-0.0725 0.68565,-0.16035 1,-0.28125 l 0,-2.375 c -0.21763,0.0484 -0.40637,0.1008 -0.59375,0.125 -0.18741,0.0242 -0.3408,0.0312 -0.4375,0.0312 -0.33853,0 -0.61304,-0.11302 -0.8125,-0.3125 -0.19952,-0.19948 -0.28127,-0.45483 -0.28125,-0.78125 l 0,-10.65625 c -2e-5,-1.95852 -0.64186,-3.44715 -1.875,-4.46875 -1.23317,-1.02156 -3.01751,-1.53123 -5.375,-1.53125 -0.31282,0 -0.61156,-0.0167 -0.90625,0 z m 19.78125,0 c -1.8453,0.11704 -3.33156,0.65757 -4.46875,1.59375 -1.29965,1.06996 -1.96875,2.51821 -1.96875,4.34375 0,1.40242 0.41375,2.47626 1.1875,3.25 0.77374,0.78584 2.04944,1.40853 3.875,1.84375 l 3.375,0.8125 c 1.49912,0.35061 2.50431,0.68065 3,1.03125 0.49567,0.35061 0.74999,0.88548 0.75,1.5625 -1e-5,1.0639 -0.40066,1.85012 -1.15625,2.40625 -0.75562,0.55613 -1.84966,0.84375 -3.3125,0.84375 -1.68048,0 -2.93395,-0.32092 -3.75,-0.9375 -0.81606,-0.61657 -1.31159,-1.59051 -1.46875,-2.96875 l -3.125,0 c 0.14508,2.32124 0.87679,4.01173 2.21875,5.09375 1.34195,1.08204 3.39271,1.625 6.125,1.625 2.35748,0 4.24071,-0.56315 5.625,-1.6875 1.38425,-1.12434 2.06248,-2.64022 2.0625,-4.5625 -2e-5,-1.43867 -0.38959,-2.57707 -1.1875,-3.375 -0.81002,-0.81 -2.17652,-1.44683 -4.0625,-1.90625 l -3.375,-0.78125 c -1.47495,-0.35059 -2.44182,-0.71188 -2.9375,-1.0625 -0.49568,-0.35059 -0.75001,-0.87338 -0.75,-1.5625 -1e-5,-0.90672 0.35524,-1.59098 1.0625,-2.0625 0.70724,-0.47148 1.73969,-0.68748 3.09375,-0.6875 1.31777,2e-5 2.37645,0.28262 3.15625,0.875 0.77978,0.59241 1.2158,1.42403 1.3125,2.5 l 3.0625,0 c -0.0847,-1.93434 -0.7891,-3.46232 -2.125,-4.5625 -1.33593,-1.10015 -3.14548,-1.62498 -5.40625,-1.625 -0.27806,0 -0.54889,-0.0167 -0.8125,0 z m -62.5625,0.5625 0,19.40625 1.625,0 1.65625,0 0,-19.40625 -1.65625,0 -1.625,0 z m 27.375,0 0,19.40625 1.625,0 1.625,0 0,-19.40625 -1.625,0 -1.625,0 z m -51.0625,2.25 c 1.71673,2e-5 3.078199,0.65201 4.09375,2 1.015522,1.34802 1.531234,3.16464 1.53125,5.4375 -1.6e-5,2.27288 -0.515728,4.09554 -1.53125,5.4375 -1.015551,1.34196 -2.37702,2 -4.09375,2 -1.71675,0 -3.084265,-0.65804 -4.09375,-2 -1.009498,-1.34196 -1.500005,-3.16462 -1.5,-5.4375 -5e-6,-2.27286 0.490502,-4.08948 1.5,-5.4375 1.009485,-1.34799 2.377,-1.99998 4.09375,-2 z m 71.34375,7.375 0,2.09375 c 0,0.42315 -0.0263,0.80566 -0.0625,1.15625 -0.0242,0.33852 -0.0454,0.59284 -0.0937,0.75 -0.26599,0.82211 -0.815,1.56591 -1.625,2.21875 -1.1848,0.93091 -2.62702,1.40625 -4.34375,1.40625 -1.08809,0 -1.93886,-0.3199 -2.53125,-0.90625 -0.5924,-0.58635 -0.875,-1.41192 -0.875,-2.5 0,-0.88255 0.36836,-1.57993 1.09375,-2.09375 0.72538,-0.51381 1.86583,-0.87613 3.4375,-1.09375 l 3,-0.4375 c 0.73746,-0.1088 1.3955,-0.30358 2,-0.59375 z"
         style="font-size:37.13965988px;font-style:normal;font-variant:normal;font-weight:normal;font-stretch:normal;line-height:125%;letter-spacing:0.25999999px;word-spacing:0px;fill:url(#linearGradient3930);fill-opacity:1;stroke:none;font-family:Helvetica;-inkscape-font-specification:Helvetica"
         inkscape:connector-curvature="0" />
    </g>
  </g>
</svg>
