<?xml version="1.0" encoding="utf-8"?>
<!-- Generator: Adobe Illustrator 27.4.1, SVG Export Plug-In . SVG Version: 6.00 Build 0)  -->
<svg version="1.1" id="Capa_1" xmlns="http://www.w3.org/2000/svg" xmlns:xlink="http://www.w3.org/1999/xlink" x="0px" y="0px"
	 viewBox="0 0 504.5 247" style="enable-background:new 0 0 504.5 247;" xml:space="preserve">
<style type="text/css">
	.st0{display:none;fill:#303030;stroke:#FFFFFF;stroke-width:2;stroke-miterlimit:10;}
	.st1{fill-rule:evenodd;clip-rule:evenodd;fill:#FFFFFF;}
	.st2{fill-rule:evenodd;clip-rule:evenodd;fill:#D12E40;}
	.st3{fill-rule:evenodd;clip-rule:evenodd;fill:#172982;}
</style>
<rect x="-537.8" y="-660.3" class="st0" width="1608.2" height="1590.2"/>
<g>
	<path class="st1" d="M356.2,120.2c-1.1-0.3-2.3-0.7-3.4-1.2c-1.5-0.7-3-1.4-4.5-2.3l-1.5,2.3h-9.1v-0.1h-19.4l-1-2.4
		c-2.8-6.6-5.6-13.2-8.6-19.6c-1.1-2.2-2.1-4.5-3.3-6.7V103c0,0.7,0.1,1.6,0.3,2.2c0.1,0.2,0.2,0.3,0.4,0.5c0.3,0.2,0.9,0.4,1.3,0.5
		c0.6,0.2,1.3,0.4,2,0.5l3.3,0.5v11.7h-90.6v-11.8l3.4-0.4c0.8-0.1,1.7-0.3,2.5-0.4c0.3-0.1,0.9-0.2,1.2-0.3
		c0.1-0.1,0.2-0.2,0.2-0.3c0.2-0.7,0.3-1.6,0.3-2.3V45.8c0-0.7,0-1.6-0.2-2.3c-0.1-0.1-0.4-0.4-0.5-0.4c-0.5-0.3-1.2-0.6-1.7-0.7
		c-0.5-0.2-1.1-0.4-1.7-0.5h-0.3c-0.4,0.1-0.8,0.2-1.2,0.4c-0.5,0.2-1,0.6-1.3,1c-0.6,0.6-1.2,1.3-1.7,2c-0.6,1.1-1.1,2.5-1.4,3.8
		c-1.1,3.8-2.2,7.7-3.2,11.5c-1.6,5.8-3.2,11.6-4.7,17.3c-1.7,6.4-3.4,12.7-5.1,19.1c-1.8,6.6-3.5,13.3-5.3,19.9l-0.8,2.9h-13.4
		l-0.8-2.9c-3.5-13.4-7-26.7-10.6-40.1c-2.5-9.4-5-18.8-7.5-28.2c-0.3-1.1-0.8-2.5-1.3-3.6c-0.4-0.7-1.1-1.4-1.7-2
		c-0.3-0.3-0.8-0.7-1.2-0.9c-0.3-0.1-0.7-0.3-1.1-0.4c-0.6,0.1-1.3,0.2-1.9,0.3c-0.6,0.1-1.2,0.3-1.8,0.5l0,0
		c-0.2,0.8-0.3,1.6-0.3,2.5v58c0,0.7,0.1,1.6,0.3,2.3c0.1,0.2,0.2,0.3,0.4,0.4c0.4,0.2,1.1,0.4,1.5,0.5c0.8,0.2,1.6,0.4,2.4,0.5
		l3.5,0.3v11.9h-36.8v-11.8l3.4-0.4c1-0.1,2-0.2,2.9-0.3c0.3,0,0.9-0.1,1.2-0.2c0.1-0.1,0.1-0.1,0.2-0.2c0.2-0.7,0.3-1.6,0.3-2.3
		V45.9c0-0.7-0.1-1.6-0.3-2.3c-0.1-0.2-0.2-0.3-0.3-0.4c-0.5-0.3-1.3-0.6-1.8-0.8c-0.8-0.3-1.6-0.5-2.4-0.7l-0.8-0.1l-0.9,0.2
		c-0.9,0.1-1.8,0.4-2.7,0.6c-0.6,0.1-1.1,0.6-1.5,1c-0.5,0.6-0.9,2.6-1,3.3c-0.5,3.3-0.5,7.1-0.5,10.5v62.2h-12.8L86.8,68.3v22.4
		c0,3.3,0,7,0.6,10.2c0.2,1,0.5,2.8,1.2,3.7c0.4,0.4,1.2,0.9,1.7,1.1c0.9,0.4,1.9,0.9,2.9,1.1l2.9,0.8v11.3H65.7v-11.8l3.4-0.4
		c0.8-0.1,1.7-0.4,2.5-0.6c0.6-0.2,1.1-0.5,1.5-1c0.6-0.7,0.9-2.2,1.1-3.1c0.5-3.3,0.5-7.3,0.5-10.7V52.7c0-1.5-0.1-3.1-0.5-4.6
		C74,47,73.6,45.9,73,45c-0.5-0.8-1.1-1.5-1.9-2c-0.9-0.6-1.8-1-2.8-1.3h-0.1c-0.7,0.1-1.4,0.4-2.1,0.5c-0.6,0.2-1.2,0.5-1.7,1l0,0
		l0,0c-0.4,0.5-0.8,2.3-0.9,2.9c-0.5,3.3-0.5,7-0.5,10.3V86c0,8.2-1.6,16.6-6.6,23.3c-4.6,6.2-10.9,9.5-18.6,9.5
		c-8.1,0-15.3-2.7-20.4-9.1c-5.4-6.7-7-15.4-7-23.8V45.2c0-0.7-0.1-1.4-0.3-2.1c-0.1-0.3-0.4-0.6-0.6-0.8c-0.3-0.2-0.8-0.4-1.2-0.6
		c-0.6-0.2-1.2-0.4-1.8-0.5l-3.2-0.6V29.3h35.3V41l-3.5,0.3c-0.6,0.1-1.2,0.2-1.8,0.3s-1.1,0.4-1.6,0.6c-0.2,0.7-0.3,1.6-0.3,2.3
		v40.1c0,4.4,0.4,11.3,2.8,15.1c1.6,2.5,3.8,3.6,6.7,3.6c3.1,0,5.2-1.5,6.8-4.1c2.6-4.2,3.1-10.6,3.1-15.4V56.9c0-3.2,0-6.9-0.6-10
		c-0.2-0.8-0.6-2.6-1.1-3.3L49,43.5v-0.1c-0.3-0.4-1.4-0.9-1.8-1.1c-0.8-0.3-1.9-0.8-2.7-1l-3-0.7V29.3h49.8l22.5,43.2V57.4
		c0-3.2,0-7.1-0.6-10.3c-0.2-1-0.6-2.8-1.2-3.6c-0.4-0.5-1.2-0.9-1.8-1.2c-0.9-0.4-1.9-0.8-2.8-1.1l-2.9-0.8V29.1h91v11.5l-3.2,0.6
		c-0.8,0.1-2.5,0.5-3.6,0.8c0.1,0.5,0.2,1,0.3,1.5c1.3,5.5,2.8,10.9,4.3,16.4c1.9,6.9,3.7,13.7,5.5,20.6c0.8-3.2,1.7-6.5,2.5-9.7
		c1.5-5.8,2.9-11.6,4.4-17.5c0.6-2.2,1.1-4.4,1.5-6.7c0.2-1.2,0.5-2.7,0.5-3.9l-0.1-0.1c-0.8-0.6-3.6-1-4.5-1.1l-3.4-0.4V29.2h76.7
		v28.6h-7.9V93c0.5-1.4,1-2.8,1.3-4.2l0.7-3h9.8l-0.8,21.1l0.6-0.1c0.9-0.1,1.8-0.3,2.8-0.5c0.3-0.1,0.9-0.2,1.2-0.3
		c0.1-0.1,0.2-0.2,0.2-0.3c0.2-0.7,0.3-1.6,0.3-2.3V45.8c0-0.7,0-1.6-0.2-2.3c-0.1-0.1-0.3-0.2-0.4-0.3c-0.6-0.4-1.2-0.6-1.9-0.8
		c-0.8-0.2-1.5-0.5-2.3-0.7l-2.9-0.7V29.6h33.4c6.4,0,12.9,1.4,17.7,5.8c4.8,4.5,6.4,10.9,6.4,17.3c0,5.4-0.9,11.1-3.7,15.8
		c-2,3.3-4.7,5.8-7.8,7.8c1.4,2.8,2.8,5.6,4.2,8.4c2.3,4.5,4.6,9.1,7,13.6c0.9,1.8,2,3.5,3,5.3c0.1,0.2,0.4,0.6,0.6,1l-0.4-22.1
		h10.1l0.8,2.9c0.7,2.8,1.6,5.6,2.6,8.3c0.9,2.6,2.1,5.1,3.5,7.5c1.1,1.9,2.5,3.7,4.2,5.2c1.2,1,2.5,1.5,4,1.5
		c1.9,0,3.4-0.5,4.6-2.1c1.5-2.1,2-4.6,2-7.2c0-2-0.4-3.9-1.6-5.6c-1.3-1.9-3.6-3.3-5.6-4.3c-1.9-0.9-3.8-1.9-5.8-2.8
		c-1.8-0.9-3.5-1.8-5.2-2.8c-4.3-2.6-7.4-6.3-9.4-11s-2.9-9.7-2.9-14.9c0-3.4,0.5-6.8,1.5-10.1c1-3.2,2.5-6.2,4.5-8.9
		s4.6-4.8,7.5-6.3c3.1-1.7,6.6-2.5,10.1-2.5s6.8,0.7,9.9,2.2c1.1,0.5,2.2,1.1,3.3,1.8l1.2-1.8h9.1l0.4,34.9h-9.4
		c3.9,2.4,7,5.8,9.1,9.9c2.4,4.8,3.2,10.2,3.2,15.5c0,3.8-0.6,7.6-1.8,11.2c-0.4,1.2-0.9,2.5-1.4,3.6c0.6-0.1,1.2-0.2,1.7-0.4
		c0.3-0.1,0.7-0.2,0.9-0.4l0,0l0,0c0.7-0.6,1.3-1.4,1.7-2.3c0.6-1.2,1.1-2.6,1.4-3.9c2.9-10.6,5.7-21.3,8.6-31.9
		c3.2-11.8,6.4-23.5,9.5-35.3l0.8-2.9h13.4l0.8,2.9c3.8,14.4,7.6,28.8,11.4,43.2c2.3,8.8,4.6,17.5,7,26.2c0.2,0.8,0.5,1.6,0.9,2.3
		c0.3,0.6,0.8,1.1,1.3,1.6c0.3,0.3,0.7,0.4,1.1,0.6c0.4,0.1,0.8,0.3,1.3,0.3c0.9-0.1,1.8-0.3,2.7-0.5c0.3-0.1,0.8-0.2,1.2-0.3
		c0.1,0,0.1-0.1,0.1-0.2c0.2-0.7,0.3-1.7,0.3-2.4V45.7c0-0.7,0-1.6-0.2-2.3c-0.1-0.1-0.4-0.3-0.5-0.4c-0.5-0.3-1.1-0.6-1.7-0.8
		c-0.8-0.2-1.6-0.5-2.4-0.7l-3-0.7V29.4h36.6v11.7l-3.3,0.5c-0.9,0.1-1.7,0.3-2.6,0.5c-0.6,0.1-1.2,0.3-1.8,0.5l0,0
		c-0.2,0.8-0.3,1.6-0.3,2.5v53.7c0,1.7,0,3.7,0.3,5.4c0,0.3,0.2,0.9,0.3,1.2l0,0l0,0c0.1,0.1,0.4,0.1,0.5,0.2
		c1.3,0.2,2.8,0.3,4.1,0.3c1.7,0,3.4-0.2,5-0.5c0.4-0.1,1.3-0.3,1.5-0.7c1.4-2.2,2.6-5,3.5-7.5c1.1-3.1,2.2-6.2,3.1-9.4l0.8-2.9h9.7
		l-1.3,33.9h-85.2V107l3.4-0.4c1.2-0.1,2.5-0.5,3.8-0.9v-0.1l-3.7-13.8h-12.2c-0.2,0.8-0.4,1.7-0.6,2.5c-0.4,1.8-0.9,3.7-1.3,5.5
		c-0.3,1.3-0.6,2.8-0.8,4.1c0,0.5-0.1,1-0.1,1.4c0.1,0,0.1,0.1,0.2,0.1c0.9,0.6,3.2,1,4.3,1.2l3.4,0.5v11.7H382v-6.3
		c-2.2,2.6-4.9,4.7-7.9,6.2c-1.1,0.6-2.3,1-3.5,1.4h131.6v114.4H2.2V120.2H356.2L356.2,120.2z M376,66l-0.6-2.4
		c-0.7-2.9-1.6-5.8-2.5-8.7c-0.8-2.3-1.7-4.8-2.9-7c-0.8-1.5-1.9-3-3.3-4.1c-0.9-0.8-1.9-1.1-3.1-1.1c-1.5,0-2.5,0.6-3.4,1.9
		c-1.3,1.8-1.8,4-1.8,6.2c0,1.9,0.3,4,1.5,5.5c1.3,1.8,3.5,3.2,5.5,4.2c1.9,0.9,3.7,1.9,5.6,2.8C372.5,64.1,374.2,65,376,66L376,66z
		 M250.8,42.6v23.7h1.5c0.7,0,1.5-0.1,2.1-0.4c0.5-0.2,1.1-1,1.4-1.4c0.5-0.8,1-2.6,1.2-3.5c0.4-1.7,0.8-3.5,1-5.2l0.4-3.5h6.8
		c-0.7-1.9-1.5-3.7-2.5-5.4c-0.5-0.8-2.1-3.5-3.1-3.8l0,0l0,0c-0.5-0.2-1.4-0.2-1.9-0.3c-1,0-2.1-0.1-3.1-0.1L250.8,42.6L250.8,42.6
		z M268.2,94h-9.9l-0.3-3.5c-0.2-1.8-0.6-3.7-1-5.5c-0.3-1-0.8-3.1-1.3-4c-0.3-0.4-0.7-1.1-1.2-1.3c-0.7-0.3-1.5-0.4-2.2-0.4h-1.5
		v19.6c0,1.7,0,3.5,0.3,5.2c0.1,0.3,0.2,1.2,0.5,1.4c0.1,0.1,0.3,0.1,0.4,0.1c1.1,0.2,2.5,0.3,3.6,0.3c1,0,2,0,3-0.1
		c0.8,0,1.7-0.1,2.5-0.3l0,0l0,0c0.7-0.1,1.4-0.3,2.1-0.6c0.1,0,0.2-0.1,0.3-0.2c1.5-2.4,2.7-5.3,3.7-7.9
		C267.5,96,267.8,95,268.2,94L268.2,94z M415,78.6l-2.6-9.8l-2.5,9.8H415L415,78.6z M305.5,42.6v26.3c1.8-0.2,3.1-1.1,4.2-2.7
		c2-3,2.3-8.4,2.3-11.9c0-2.8-0.3-7.2-2.1-9.5C308.8,43.4,307.2,42.8,305.5,42.6z"/>
	<g>
		<rect x="6.1" y="124.1" class="st2" width="492.3" height="106.7"/>
		<path class="st3" d="M67.8,37.8c-0.7,0.1-1.7,0.4-3.1,0.8c-1.3,0.4-2.5,1.1-3.4,2s-1.6,2.6-2,5s-0.6,6.1-0.6,10.9v29.6
			c0,8.7-2,15.7-5.9,21s-9.1,8-15.5,8c-7.5,0-13.3-2.6-17.4-7.7c-4.1-5.1-6.2-12.2-6.2-21.4V45.3c0-1.3-0.2-2.4-0.5-3.4
			c-0.3-0.9-1-1.8-1.9-2.5c-0.6-0.5-1.4-0.9-2.4-1.2c-0.9-0.3-1.7-0.5-2.3-0.6v-4.3h27.6v4.3c-0.8,0.1-1.6,0.2-2.4,0.4
			c-0.8,0.2-1.6,0.5-2.5,0.9s-1.6,1.2-1.9,2.2c-0.3,1-0.5,2.2-0.5,3.5v40.1c0,7.9,1.1,13.6,3.4,17.2c2.3,3.6,5.6,5.4,10,5.4
			c4.3,0,7.7-2,10.1-5.9c2.4-4,3.7-9.8,3.7-17.5V57c0-4.8-0.2-8.4-0.6-10.7c-0.4-2.4-1.1-4.1-2-5.1c-0.6-0.8-1.8-1.6-3.4-2.2
			c-1.6-0.7-2.7-1.1-3.4-1.2v-4.4h22.8v4.4H67.8z M497.7,88.9l-1,26.2h-48.4v-4.5c0.9-0.1,1.9-0.3,3-0.5c1.2-0.2,1.9-0.5,2.3-0.7
			c0.9-0.5,1.5-1.3,1.9-2.2c0.3-1,0.5-2.2,0.5-3.7V45.9c0-1.4-0.1-2.5-0.4-3.4c-0.3-0.9-0.9-1.7-2-2.4c-0.8-0.5-1.7-1-2.8-1.3
			s-1.9-0.6-2.6-0.7v-4.5h28.9v4.5c-0.8,0.1-1.7,0.3-2.8,0.5s-2,0.5-2.8,0.9c-1,0.5-1.6,1.3-1.9,2.3c-0.3,1.1-0.5,2.3-0.5,3.6v53.7
			c0,2.5,0.1,4.5,0.3,6s0.7,2.5,1.3,3.2s1.5,1.2,2.7,1.4c1.1,0.2,2.7,0.3,4.8,0.3c2,0,3.9-0.2,5.8-0.5c1.9-0.4,3.2-1.2,4-2.4
			c1.3-2,2.6-4.7,3.9-8.3c1.3-3.5,2.4-6.8,3.2-9.8L497.7,88.9L497.7,88.9z M447.7,115.1H419v-4.4c1.3-0.2,2.9-0.5,4.7-1.1
			s2.7-1.3,2.7-2.2c0-0.3,0-0.6-0.1-1c0-0.4-0.1-0.9-0.3-1.5l-4.5-16.7h-18.2c-0.4,1.6-0.9,3.4-1.4,5.4c-0.5,2.1-0.9,3.9-1.3,5.6
			c-0.5,2.1-0.7,3.6-0.8,4.6c-0.1,0.9-0.1,1.6-0.1,2c0,1.2,0.6,2.2,1.8,3.1c1.2,0.9,3.2,1.5,6,1.8v4.4h-21.6v-4.4
			c0.8-0.1,1.7-0.3,2.8-0.6c1-0.3,1.8-0.8,2.4-1.3c1-0.9,1.9-2,2.6-3.3c0.7-1.3,1.3-2.9,1.8-4.7c2.9-10.6,5.7-21.3,8.6-31.9
			c2.9-10.7,6.1-22.4,9.5-35.3h7.4c4.8,18.2,8.6,32.6,11.4,43.2c2.7,10.6,5.1,19.4,7,26.3c0.3,1.1,0.7,2.2,1.2,3.1
			c0.5,0.9,1.2,1.8,2.1,2.6c0.7,0.6,1.5,1.1,2.4,1.4c0.9,0.3,1.7,0.5,2.5,0.6L447.7,115.1L447.7,115.1z M420,82.5L420,82.5
			l-7.6-29.1L405,82.5H420L420,82.5z M363.3,117.3c-3.2,0-6.2-0.6-9-1.8s-5.1-2.6-7.1-4.3l-2.6,3.9h-3.2L341,86.3h3.2
			c0.7,2.7,1.6,5.6,2.7,8.7c1.1,3,2.4,5.8,3.9,8.2c1.5,2.5,3.2,4.6,5.1,6.1c1.9,1.6,4,2.4,6.5,2.4c3.4,0,5.9-1.2,7.7-3.7
			s2.7-5.6,2.7-9.4c0-3.1-0.8-5.7-2.3-7.8s-3.9-3.9-7.1-5.5c-2.1-1-4-2-5.7-2.8c-1.7-0.9-3.4-1.7-4.9-2.7c-3.5-2.1-6.2-5.2-7.9-9.2
			s-2.6-8.4-2.6-13.3c0-3.1,0.4-6.1,1.3-9c0.9-2.9,2.2-5.4,3.9-7.7c1.6-2.1,3.7-3.9,6.3-5.2c2.5-1.3,5.3-2,8.3-2
			c2.9,0,5.6,0.6,8.2,1.9c2.5,1.2,4.5,2.5,6,3.7l2.3-3.4h3.2l0.3,27.2h-3.2c-0.7-2.9-1.6-5.9-2.6-9s-2.1-5.6-3.2-7.6
			c-1.2-2.2-2.6-3.9-4.2-5.2c-1.6-1.3-3.4-1.9-5.6-1.9c-2.7,0-4.9,1.1-6.5,3.4c-1.7,2.3-2.5,5.1-2.5,8.5c0,3.2,0.7,5.8,2.2,7.8
			s3.8,3.8,6.9,5.3c1.8,0.9,3.7,1.9,5.6,2.8c1.9,0.9,3.6,1.8,5.1,2.7c3.6,2.1,6.3,5,8.2,8.7s2.8,8.3,2.8,13.7c0,3.4-0.5,6.8-1.6,10
			s-2.5,5.9-4.3,8c-2,2.4-4.3,4.2-6.9,5.5C369.8,116.7,366.8,117.3,363.3,117.3L363.3,117.3z M341.2,115.1v-4.5
			c-0.4,0-1-0.2-1.9-0.3c-0.9-0.2-1.6-0.4-2.2-0.7c-1-0.5-2.2-1.8-3.5-4s-2.4-4-3.1-5.5c-2.4-4.6-4.8-9.2-7-13.6
			c-2.2-4.4-4.2-8.4-5.9-11.7c4.3-2,7.5-4.7,9.7-8.1c2.1-3.5,3.2-8.1,3.2-13.8c0-6.5-1.7-11.3-5.1-14.5c-3.4-3.2-8.4-4.8-15-4.8
			h-29.5v4.5c0.6,0.2,1.5,0.4,2.5,0.7c1.1,0.3,2,0.8,2.8,1.3c1,0.7,1.7,1.5,2,2.4s0.4,2.1,0.4,3.5v57.6c0,1.5-0.2,2.7-0.5,3.6
			c-0.3,0.9-1,1.7-1.9,2.3c-0.5,0.3-1.3,0.6-2.5,0.8s-2.1,0.4-2.8,0.5v4.5H309v-4.5c-0.7-0.1-1.6-0.3-2.6-0.7
			c-1-0.3-1.7-0.6-2.2-0.9c-0.9-0.7-1.6-1.5-1.9-2.4c-0.3-1-0.5-2.1-0.5-3.5V78.5h2c3.4,6.4,6.3,12.1,8.6,17s5.2,11.5,8.7,19.8h20.1
			V115.1z M316,54.4c0,6.4-1,11.1-3,14c-2,3-4.8,4.4-8.5,4.4h-2.8V38.6h2.9c3.6,0,6.4,1.3,8.4,3.8C315,45,316,49,316,54.4L316,54.4
			L316,54.4z M272.7,54.3h-2.8c-0.7-3.1-2-6.2-3.7-9.4c-1.8-3.2-3.5-5-5.2-5.6c-0.7-0.3-1.8-0.4-3.1-0.5s-2.4-0.1-3.3-0.1H247v31.5
			h5.4c1.4,0,2.6-0.2,3.7-0.7c1.1-0.5,2.1-1.5,3-2.9c0.6-0.9,1.1-2.4,1.7-4.7c0.6-2.2,1-4.2,1.1-5.8h2.8v34h-2.8
			c-0.1-1.6-0.5-3.6-1.1-6.1c-0.6-2.4-1.2-4.1-1.7-5c-0.8-1.4-1.8-2.3-2.9-2.8c-1.1-0.5-2.4-0.8-3.9-0.8h-5.4v23.5
			c0,2.5,0.1,4.4,0.4,5.8c0.2,1.4,0.7,2.5,1.3,3.3c0.6,0.7,1.5,1.2,2.5,1.4c1.1,0.2,2.5,0.3,4.4,0.3c0.9,0,1.9,0,3.1-0.1
			c1.2,0,2.3-0.2,3.2-0.3c1-0.2,2-0.5,2.9-0.9s1.6-0.9,2-1.7c1.2-1.9,2.5-4.7,4-8.6c1.5-3.9,2.5-6.7,2.9-8.7h2.7l-1,25.4H226v-4.5
			c0.7-0.1,1.6-0.2,2.8-0.5c1.2-0.2,2-0.5,2.5-0.8c0.9-0.6,1.6-1.4,1.9-2.3c0.3-0.9,0.5-2.1,0.5-3.6V45.5c0-1.4-0.1-2.5-0.4-3.4
			c-0.3-0.9-0.9-1.7-2-2.4c-0.6-0.5-1.5-0.9-2.7-1.3c-1.2-0.4-2-0.6-2.6-0.7v-4.5h46.6L272.7,54.3L272.7,54.3z M225,38.1
			c-0.8,0.1-1.6,0.3-2.3,0.7c-0.7,0.3-1.5,0.9-2.3,1.6c-1.1,1-1.9,2-2.5,3.1s-1.2,2.6-1.7,4.5c-0.8,2.6-1.8,6.5-3.2,11.6
			s-3,10.9-4.7,17.3c-1.6,5.8-3.3,12.2-5.1,19.1c-1.8,6.9-3.6,13.6-5.3,20h-7.5c-3.5-13.1-7-26.5-10.6-40.1s-6.1-23-7.6-28.3
			c-0.6-1.9-1.1-3.4-1.6-4.3c-0.5-1-1.4-2-2.5-3c-0.8-0.7-1.6-1.2-2.2-1.5c-0.6-0.3-1.5-0.5-2.5-0.8c-0.7,0.1-1.7,0.3-2.8,0.5
			s-2.1,0.5-2.8,0.9c-1,0.5-1.6,1.3-1.9,2.3c-0.3,1.1-0.5,2.3-0.5,3.6V103c0,1.4,0.2,2.6,0.5,3.5c0.3,1,1,1.8,1.9,2.4
			c0.5,0.3,1.4,0.7,2.6,1c1.2,0.3,2.2,0.5,3,0.6v4.5h-29.2v-4.5c0.7-0.1,1.7-0.2,2.9-0.3c1.3-0.2,2.2-0.4,2.7-0.7
			c0.9-0.6,1.5-1.3,1.9-2.3c0.3-0.9,0.5-2.1,0.5-3.6V45.8c0-1.3-0.2-2.5-0.5-3.5s-1-1.8-1.9-2.4c-0.6-0.4-1.5-0.8-2.6-1.2
			c-1.2-0.4-2.2-0.7-3-0.8v-4.5h29.1l0,0h28.5v4.4c-2.7,0.5-4.5,1-5.4,1.6c-1,0.6-1.4,1.3-1.4,2.1c0,0.4,0,0.9,0.1,1.4
			s0.2,1.1,0.4,1.9c0.8,3.4,2.2,8.9,4.3,16.5s5.2,19.3,9.2,35c2.5-9.5,4.6-17.6,6.2-24.2c1.7-6.6,3.1-12.4,4.4-17.5
			c0.6-2.5,1.1-4.7,1.5-6.9c0.4-2.1,0.6-3.7,0.6-4.8c0-1.2-0.6-2.3-1.7-3.1c-1.1-0.8-3.2-1.4-6.3-1.8v-4.6h21.3L225,38.1L225,38.1z
			 M131,38c-0.7,0.1-1.7,0.3-3,0.6s-2.4,1.1-3.5,2.2c-0.9,1-1.6,2.8-1.9,5.3c-0.4,2.5-0.6,6.2-0.6,11.1v58.3h-6.6L82.7,52.4v38.3
			c0,4.8,0.2,8.4,0.6,10.8c0.4,2.5,1.1,4.3,2,5.4c0.7,0.8,1.7,1.6,3.2,2.2c1.5,0.7,2.6,1.1,3.5,1.3v4.5H69.4v-4.5
			c1-0.1,2.1-0.4,3.3-0.8c1.2-0.4,2.3-1.1,3.1-2c1-1.1,1.6-2.8,2-5s0.5-6,0.5-11.3V52.7c0-1.9-0.2-3.7-0.6-5.4
			c-0.4-1.7-1-3.2-1.8-4.4c-0.9-1.3-1.9-2.3-3-3.1c-1.1-0.7-2.4-1.3-3.8-1.8v-4.6h19.8l28.8,55.2V57.7c0-4.9-0.2-8.6-0.6-10.9
			c-0.4-2.4-1.1-4.2-2-5.3c-0.7-0.9-1.8-1.6-3.2-2.3c-1.4-0.6-2.5-1.1-3.4-1.3v-4.5H131V38z"/>
	</g>
	<path class="st1" d="M348.8,220v-58.8h15.6l9.2,40.1l9.1-40.1h15.7V220h-9.6v-46.3L378.7,220h-10l-10.1-46.3V220H348.8L348.8,220z
		 M283.2,220.6h-13.4v-60c-4.9,5.4-10.7,9.4-17.4,12.1v-14.5c3.5-1.4,7.3-3.9,11.4-7.7c4.1-3.8,6.9-8.2,8.5-13.2h10.9V220.6
		L283.2,220.6z M224.3,220.6L224.3,220.6v-15.8h13.4v15.8H224.3L224.3,220.6z M180,195.4L180,195.4c0,4.4,0.9,7.8,2.8,10.3
		c1.9,2.5,4.3,3.7,7.1,3.7s5.1-1.2,6.9-3.5c1.8-2.4,2.7-5.8,2.7-10.3c0-3.9-0.9-7.1-2.8-9.4c-1.9-2.4-4.2-3.6-7-3.6
		c-3.3,0-5.7,1.4-7.3,4C180.8,189.3,180,192.2,180,195.4L180,195.4z M181.3,159.9L181.3,159.9c0,3.2,0.7,5.7,2.2,7.4
		c1.5,1.8,3.5,2.7,6,2.7s4.6-0.9,6.1-2.7s2.3-4.3,2.3-7.4c0-3-0.8-5.4-2.2-7.2c-1.5-1.8-3.5-2.7-6-2.7c-2.6,0-4.6,0.9-6.2,2.7
		C182.2,154.5,181.3,156.9,181.3,159.9L181.3,159.9z M178.5,175.8L178.5,175.8c-3.5-1.7-6-4.1-7.6-7.2c-1.6-3-2.4-6.4-2.4-10
		c0-6.2,1.8-11.3,5.5-15.3s8.9-6,15.6-6c6.7,0,11.8,2,15.5,6s5.5,9.1,5.5,15.3c0,3.8-0.8,7.3-2.6,10.3c-1.7,3-4.1,5.3-7.2,6.9
		c3.9,1.9,6.9,4.6,8.9,8.1c2,3.6,3,7.6,3,12.3c0,7.7-2.1,13.9-6.2,18.7c-4.1,4.8-9.6,7.2-16.5,7.2c-6.4,0-11.7-2-15.9-6
		c-5-4.7-7.5-11.1-7.5-19.3c0-4.5,1-8.6,2.8-12.4C171.5,180.8,174.5,177.9,178.5,175.8L178.5,175.8z M125.5,195.4L125.5,195.4
		c0,4.4,1,7.8,2.8,10.3c1.9,2.5,4.3,3.7,7.1,3.7s5.1-1.2,6.9-3.5c1.8-2.4,2.7-5.8,2.7-10.3c0-3.9-0.9-7.1-2.8-9.4
		c-1.9-2.4-4.2-3.6-7-3.6c-3.3,0-5.7,1.4-7.4,4C126.2,189.3,125.5,192.2,125.5,195.4L125.5,195.4z M126.8,159.9L126.8,159.9
		c0,3.2,0.7,5.7,2.2,7.4c1.5,1.8,3.5,2.7,6,2.7c2.6,0,4.6-0.9,6.1-2.7s2.3-4.3,2.3-7.4c0-3-0.8-5.4-2.3-7.2s-3.5-2.7-6-2.7
		c-2.6,0-4.6,0.9-6.2,2.7C127.5,154.5,126.8,156.9,126.8,159.9L126.8,159.9z M124,175.8L124,175.8c-3.5-1.7-6-4.1-7.6-7.2
		c-1.6-3-2.4-6.4-2.4-10c0-6.2,1.8-11.3,5.5-15.3s8.9-6,15.6-6c6.7,0,11.8,2,15.5,6s5.5,9.1,5.5,15.3c0,3.8-0.8,7.3-2.6,10.3
		c-1.7,3-4.1,5.3-7.1,6.9c3.9,1.9,6.9,4.6,8.9,8.1c2,3.6,3,7.6,3,12.3c0,7.7-2.1,13.9-6.2,18.7c-4.1,4.8-9.6,7.2-16.5,7.2
		c-6.4,0-11.7-2-15.9-6c-5-4.7-7.5-11.1-7.5-19.3c0-4.5,1-8.6,2.8-12.4C117,180.8,119.8,177.9,124,175.8L124,175.8z M305,220
		L305,220v-58.8h35.4v9.9h-25v14H337v9.9h-21.6v25L305,220L305,220z"/>
</g>
</svg>
